<svg xmlns="http://www.w3.org/2000/svg" viewBox="0 0 140 209.69" width="25" height="37.438">
	<path fill="#0b76ff" d="M131.97,193.91l-7.75,7.75c-10.7,10.7-28.06,10.7-38.76,0l-50.31-50.31,46.51-46.51,50.31,50.31c10.7,10.7,10.7,28.06,0,38.76Z"/>
	<path fill="#129aff" d="M131.97,54.53L35.16,151.35l-27.13-27.13c-10.7-10.7-10.7-28.06,0-38.76l27.13-27.13L85.47,8.03c10.7-10.7,28.06-10.7,38.76,0l7.75,7.75c10.7,10.7,10.7,28.06,0,38.76Z"/>
	<path fill="#129aff" d="M81.66,104.84s-31.39,34.68-25.11,67.91l-39.85-39.85,64.96-28.06Z"/>
</svg>
