<svg xmlns="http://www.w3.org/2000/svg" viewBox="0 0 84.04 74.08" width="40" height="35.250">
	<path fill="#e65025" d="M12.44,2.68C12.86,1.55,19-.27,20.83,.03c1.06,.18,6.36,1.26,8.79,2.31,4.97,2.14,9.44,5.23,10.39,9.8,.44,2.12,1.68,5.64,2.08,7.79,.71,3.82,.81,3.85-.69,5.11-.69,.58-12.11-.63-12.98-.87-1.83-.5-4.67,.13-5.22-1.02-1.85-3.9-3.57-6.79-5.17-8.88-1.44-1.88-6.15-10.12-5.6-11.59"/>
	<path fill="#f6b019" d="M43.01,10.99c-.48,2.11,1.71,14.39,2.97,14.97,1.86,.86,4.49-1.95,15.12-3.61,5.21-.81,14.61-14.7,13.79-16.4-1.85-3.81-8.27-5.41-12.09-5.07-3.68,.33-11.35,3.13-13.96,4.83-5.21,3.38-5.84,5.27-5.84,5.27"/>
	<path fill="#fefefe" d="M45.9,6.08c-.11-.18-.35-.24-.53-.14-.01,0-.02,.01-.03,.02-.18,.14-.02,.3,.08,.51,4.19,8.74-1.44,18.5-1.44,18.5-.03,.21,.66,.36,.77,.25,2.61-2.72,4.24-14.35,1.16-19.15"/>
	<path fill="#fefefe" d="M48.45,4.15c-.18-.12-.42-.07-.54,.1,0,.01-.01,.02-.02,.04-.12,.2-.06,.47,.13,.6,.79,.53,1.27,1.54,1.63,2.46,1.76,4.45,2.29,9.52,1.48,14.28-.17,1.01-.79,3.76-1.46,4.53-.16,.18,1.56-.82,1.62-.89,.82-.94,.59-1.86,.79-3.01,.83-4.92,0-10.74-1.82-15.35-.41-1.04-.82-2.09-1.8-2.76"/>
	<path fill="#fefefe" d="M51.56,3.93c-.07-.23-.3-.35-.52-.27-.22,.08-.33,.32-.26,.55,2.64,8.48,7.8,16.04,14.52,21.31,.17,.13,.41,.1,.54-.06,0-.01,.02-.02,.02-.03,.13-.19,.08-.45-.09-.61-9.34-8.98-11.64-12.58-14.23-20.88"/>
	<path fill="#fefefe" d="M55.44,4.08c-.07-.23-.62-1.27-.83-1.19-.22,.09-.33,.33-.26,.56,1.95,6.16,12.32,15.23,16.36,17.58,.08,.05,.16,.06,.24,.05,.14-.02,.25-.1,.31-.23,.11-.21,.22-.86,.02-.98-3.74-2.19-13.96-9.92-15.85-15.79"/>
	<path fill="#fefefe" d="M74.71,6.72c-6.32,3.4-14.11,1.05-17.41-4.37-.1-.19-.34-.25-.53-.15-.01,0-.02,.01-.03,.02-.19,.14-.25,.4-.12,.6,2.73,4.49,9.13,6.7,12.06,6.42,1.52-.1,5.38-.78,6.75-1.41,.21-.09-.52-1.22-.72-1.12"/>
	<path fill="#fefefe" d="M65.31,5.11c.55,.06,1.1,.06,1.65,0,.91-.11,4.95-.72,5.78-1.45,.17-.15-.84-.78-1.01-.63-.9,.79-4.55,1.48-6.07,1.31-2.06-.23-4.35-1-5.41-2.43-.14-.19-.47-.66-.65-.5-.18,.16-.2,.42-.06,.61,1.19,1.6,3.52,2.84,5.78,3.09"/>
	<path fill="#fefefe" d="M47.87,7.38c.06,.16,.12,.2,.26,.19,.09-.03,.32-.06,.26-.22-.14-.4-.23-.76-.41-1.03-.09-.14-.19-.09-.3,.01-.12,.1-.21,.22-.12,.36,.12,.18,.21,.46,.3,.69"/>
	<path fill="#fefefe" d="M48.5,8.57c-.15,.07-.12,.12-.09,.29,.05,.32,.08,.6,.12,.93,.03,.17,.3,.17,.31,.17,.15-.02,.25-.07,.25-.23,0-.38-.16-.71-.23-1.1-.03-.17-.22-.13-.36-.06"/>
	<path fill="#fefefe" d="M49.12,11.23c-.16,.04-.24,.09-.22,.22,.05,.27,.14,.77,.14,1.05,0,.18,.29,.16,.3,.16,.14-.02,.28,.01,.29-.15,0-.33-.12-.88-.15-1.21-.01-.11-.2-.11-.35-.07"/>
	<path fill="#fefefe" d="M49.42,15.59c.13-.02,.35,.1,.37-.05,.04-.32-.01-1.1,0-1.43,0-.09-.12-.14-.29-.12-.16,.02-.3,.1-.29,.2,.01,.27-.02,.9-.06,1.17-.03,.17,.13,.2,.28,.22"/>
	<path fill="#fefefe" d="M49.42,17.07c-.16,0-.32,.04-.33,.21l-.22,1.27c0,.17,.14,.28,.29,.29,.02,0,.37,.04,.38-.12l.14-1.41c0-.18-.1-.24-.26-.25"/>
	<path fill="#fefefe" d="M48.62,20.2c-.07,.08-.07,.35-.07,.4v-.05s-.25,1.36-.25,1.36c-.02,.17,.59,.28,.61,.28,.12-.06,.18-.74,.2-.89l.05-.48c0-.08,.07-.43-.06-.6-.03-.04-.36-.14-.47-.02"/>
	<path fill="#fefefe" d="M47.78,23.54c-.11,.1-.14,.63-.12,.39l-.42,1.52c-.04,.19,.55,.42,.57,.42,.13-.05,.27-.82,.31-.99l.11-.55c.02-.09,.13-.48,.01-.7-.03-.05-.33-.22-.47-.1"/>
	<path fill="#fefefe" d="M47.06,5.8c.06,.14,.26,.03,.27,.02,.1-.06,.21-.09,.16-.22-.11-.27-.4-.66-.54-.91-.05-.08-.18-.02-.28,.07-.1,.09-.14,.15-.08,.25,.13,.2,.38,.57,.47,.79"/>
	<path fill="#fefefe" d="M54.1,7.24c.09,.15,.24-.03,.32-.09,.1-.11,.1-.19,.02-.34-.11-.21-.26-.46-.32-.68-.05-.16-.19-.16-.34-.12-.15,.04-.24,.09-.19,.25,.09,.31,.3,.61,.51,.97"/>
	<path fill="#fefefe" d="M55.69,9.42s.19-.22,.1-.36c-.19-.26-.36-.47-.54-.73-.1-.14-.11-.19-.27-.13-.15,.07-.31,.18-.21,.32,.22,.33,.34,.67,.6,.93,.11,.11,.22,.06,.33-.04"/>
	<path fill="#fefefe" d="M57.04,11.79s.23-.21,.12-.34c-.18-.2-.43-.62-.57-.86-.07-.11-.16-.08-.3,0-.14,.08-.28,.22-.22,.31,.19,.26,.45,.75,.66,.99,.1,.11,.19-.01,.3-.1"/>
	<path fill="#fefefe" d="M58.65,14.11c.11,.09,.2-.15,.3-.23,.1-.13,.2-.26,.07-.37-.28-.25-.55-.52-.78-.81-.06-.08-.2-.04-.34,.06-.14,.1-.2,.23-.14,.3,.21,.24,.66,.85,.89,1.06"/>
	<path fill="#fefefe" d="M60.99,16.1c.11-.12,.15-.31,.03-.43l-.96-.78c-.11-.12-.26-.04-.38,.08-.11,.12-.15,.24-.04,.37l.99,.94c.1,.11,.34-.17,.35-.18"/>
	<path fill="#fefefe" d="M61.96,16.93c-.16,0-.33,.31-.33,.37,.01,.22,.29,.43,.35,.48l.35,.31c.11,.09,.59,.53,.72,.49,.02-.01,.38-.56,.26-.66l-1.06-.79c.13,.15-.15-.2-.28-.2"/>
	<path fill="#fefefe" d="M63.93,19.54c.04,.23,.35,.44,.42,.49l.4,.31c.12,.09,.68,.54,.8,.49,.02-.02,.32-.58,.18-.69l-1.18-.79c.15,.16-.18-.2-.32-.2-.17,0-.3,.33-.29,.38"/>
	<path fill="#fefefe" d="M53.33,4.78s.22-.11,.15-.25c-.11-.22-.23-.65-.3-.88-.03-.11-.11-.11-.23-.08-.13,.03-.25,.11-.22,.19,.1,.27,.22,.76,.34,1.02,.06,.13,.15,.05,.25,0"/>
	<path fill="#fefefe" d="M71.46,5.71c.04,.17,.14,.36,.26,.31,.37-.13,1.03-.27,1.39-.44,.17-.08,.06-.2,0-.35,0-.01-.15-.31-.33-.22-.3,.14-.89,.29-1.21,.38-.15,.04-.16,.15-.11,.32"/>
	<path fill="#fefefe" d="M60.3,3.86c-.1-.12-.22-.05-.33,.04-.11,.09-.17,.17-.07,.29,.19,.22,.47,.39,.78,.6,.12,.09,.19-.12,.24-.21,.04-.13,.01-.2-.1-.29-.17-.13-.38-.28-.51-.43"/>
	<path fill="#fefefe" d="M61.65,5.05c-.09,.13-.16,.3-.02,.36,.32,.14,.57,.36,.89,.43,.14,.03,.2-.07,.24-.2,0-.01,.05-.28-.08-.33-.26-.1-.49-.18-.76-.29-.14-.06-.18-.09-.27,.04"/>
	<path fill="#fefefe" d="M64.06,5.83c-.11-.03-.15,.05-.19,.21-.04,.15-.05,.34,.05,.35,.29,.04,.75,.19,1.03,.19,.14,0,.11-.14,.14-.28,0-.01,.02-.3-.13-.3-.24,0-.66-.11-.89-.17"/>
	<path fill="#fefefe" d="M67.46,6.09c-.23,.05-.77,.11-1,.1-.09,0-.15,.13-.16,.29-.01,.17,.03,.29,.11,.29,.28-.01,.95,.01,1.22-.04,.13-.03,.02-.24,.03-.37-.03-.15-.05-.3-.2-.27"/>
	<path fill="#fefefe" d="M70.1,5.66l-1.07,.3c-.15,.02-.18,.18-.16,.34,.02,.16,.07,.26,.22,.24l1.2-.23c.13-.02,.08-.36,.08-.38-.02-.16-.12-.29-.27-.27"/>
	<path fill="#fefefe" d="M58.95,3.18c.09,.08,.14-.02,.21-.1,.01,0,.15-.18,.04-.27-.17-.14-.42-.45-.56-.62-.07-.08-.13-.05-.22,.03-.09,.08-.18,.19-.12,.25,.18,.19,.45,.55,.65,.71"/>
	<path fill="#b16fab" d="M1.09,16.53c.07-1.38,2.4-6.64,3.04-7.75,.38-.66,4.05-4.38,4.96-4.37,1.66,.01,3.82,4.45,4.64,6.36,.41,.95,2.42,4.2,4.28,7.6,1.86,3.4,4.61,6.94,4.39,8.52-.19,1.41-.65,2.86-1.38,4.42-.91,1.94-3.38,3.7-4.19,4.99-1.47,2.31-3.81,4.79-5.06,4.79-1.25,0-4.25-2.31-6.45-5.25C2.73,32.34,.73,29.04,.26,25.93c-.9-5.91,.83-9.4,.83-9.4"/>
	<path fill="#005da0" d="M77.22,8.84c-.79-.31-4.32,3.87-6.27,7.2-2.93,4.99-6.04,7.79-6.56,8.51-2.37,3.27-1.86,8.66-.68,10.61,2.25,3.7,5.02,10.06,7.53,9.33,1.45-.42,4.81-4.3,7.33-8.92,2.52-4.63,4.78-7.44,5.29-10.78,.87-5.7-1.63-9.82-2.48-11.49-2.26-4.45-4.15-4.44-4.15-4.44"/>
	<path fill="#b9cd32" d="M25.3,26.95c-.97,.73-3.72,8.18-4.4,8.67-2.23,1.59-4.95,5.5-7.3,7.72-.99,.94,.57,2.95,2.71,5.14,2.06,2.11,5.37,3.66,6.21,6.12,.45,1.32,5.01-1.2,8.92-3.91,3.75-2.6,7.18-4.85,7.5-5.72,.57-1.54,1.53-3.63,1.49-5.89-.04-1.78,2.01-7.96,1.32-10.12-.38-1.18-3.83-1.27-7.15-1.29-3.32-.02-8.46-1.35-9.29-.72"/>
	<path fill="#64b8e6" d="M44.59,29.72c-.65,.5-1.16,3.71-1.51,7.21-.35,3.51-.54,7.32-.55,9.03,0,.51,1.21,1.47,3.03,2.57,1.63,.99,3.74,2.09,5.91,3.12,3.42,1.61,6.97,3.02,8.99,3.43,1.83,.37,1.87-1.26,3.15-2.98,1.15-1.54,4.69-4.68,4.53-5.13-.89-2.4-3.27-3.68-5.32-7.7-.99-1.94-1.51-3.34-1.78-4.48-.35-1.55-.22-2.64-.09-3.98,.22-2.32,.74-5.56-2.16-4.99-1.05,.21-3.34,.38-5.89,.84-2.89,.51-6.13,1.38-8.31,3.06"/>
	<path fill="#1aa54a" d="M26.26,58.13c0,.68,3.99,5.98,8.04,10.12,3.46,3.54,6.99,6.1,7.66,5.81,.45-.19,2.69-1.51,4.42-4.07,1.46-2.15,4.44-5.14,6.14-6.94,3.58-3.79,6.14-5.55,4.78-6.16-2.28-1.02-7.02-3.4-10.75-5.39-3.36-1.8-6.37-3.87-6.7-3.76-.29,.1-4.55,3.24-7.49,5.28-3.14,2.17-6.08,4.46-6.08,5.11"/>
	<path fill="#fefefe" d="M34.26,15.4c-1.62,3.72-6.13,3.39-9.03,1.73-2.8-1.61-3.7-5.63-1.94-8.36,1.89-2.91,6.23-3.28,8.93-1.52,2.42,2.2,3.47,4.84,2.04,8.15m-1.38-8.16c.02-.09,0-.18-.06-.25-2.49-2.73-7.41-1.94-9.81,.56-1.02,1.07-1.73,3.05-1.67,4.53,.1,2.79,.97,4.38,3.12,6.07,3.3,2.59,8,1.74,10.34-1.55,2.24-3.15,1.07-7.43-1.92-9.35"/>
	<path fill="#fefefe" d="M31.42,11.33c.22-.23,.18-.62,.18-.91,0-.32-.01-.65-.19-.93-.11-.18-.34-.37-.56-.24-.02,.01-.03,.04-.05,.05-.02,0-.04,.01-.07,.02-.52,.23-.47,1.01-.52,1.49-.02,.21,.18,.53,.33,.67,.3,.28,.64,.08,.87-.16m-3.46,.12c.36-.27,.34-.76,.28-1.17-.01-.09-.03-.19-.05-.28-.02-.51-.3-1-.84-.91-.85,.15-.77,1.54-.41,2.08,.21,.31,.68,.54,1.02,.28m5.24,2.4c-.09-.15-.24-.22-.22-.42,.02-.4-.58-.39-.6,0-.01,.15,.03,.29,.09,.42-.02,.01-.04,.02-.06,.04-.89,.98-1.96,1.33-3.22,1.51-1.44,.21-2.76-.77-3.66-1.81l.03-.03c.1-.1,.2-.21,.28-.32,.24-.32-.3-.74-.55-.43-.13,.16-.32,.37-.51,.46l-.14,.09c.09,0,.08,0-.03,.01-.11,.04-.2,.12-.25,.23-.07,.16-.02,.35,.16,.4,.11,.03,.19,.11,.33,.06,.05-.02,.09-.04,.14-.06,1.75,2.81,5.93,3.21,7.82,.35l.02,.03c.11,.12,.22,.2,.38,.19,.15-.01,.32-.16,.25-.33-.06-.15-.17-.26-.25-.4"/>
	<path fill="#fefefe" d="M39.47,56.8c.28,.59,.47,1.16,.67,1.72,.19,.54,.39,1.11,.65,1.68l.07-.1,.03-.24h-.06s-.03,0-.03,0h-.03c-.1-.05-.17-.15-.17-.26,0-.12,.04-.22,.13-.26h.05c.23-.05,.83-.13,.83-.13h.03s.03,0,.03,0c.1,.03,.17,.11,.19,.23,.02,.11-.03,.22-.12,.28l-.05,.02-.14,.02-.02,.35s0,.03,.01,.05c.03-.03,.07-.06,.08-.07,.8-1.24,1.93-3.3,2.29-3.97-1.05,.06-1.91,.24-2.67,.4-.61,.13-1.19,.25-1.77,.29h0Zm1.22,3.86l-.05-.11c-.33-.67-.56-1.31-.77-1.94-.21-.61-.44-1.24-.75-1.89l-.1-.21h.23c.64-.02,1.24-.15,1.94-.3,.84-.18,1.78-.38,2.98-.42h.23s-.09,.2-.09,.2c-.02,.06-1.44,2.72-2.44,4.24h0s-.03,.04-.17,.16l-.11,.1-.07,.1-.1-.07q-.06-.03-.17-.39v-.03s.03-.59,.03-.59h-.05s-.1,.69-.1,.69q-.26,.37-.31,.39s-.12,.04-.12,.04Zm-4.46-.1c.37,.02,.76,.05,1.13,.08,.38,.03,.78,.07,1.15,.08-.01-.1-.03-.21-.05-.31-.07-.37-.2-.72-.4-1.04-.14-.23-.32-.43-.53-.59-.2,.3-.42,.58-.63,.85-.24,.31-.47,.6-.68,.93Zm2.61,.47h-.17c-.42-.01-.88-.05-1.33-.09-.45-.04-.91-.07-1.36-.09h-.24s.12-.22,.12-.22c.24-.43,.54-.81,.83-1.18,.24-.3,.48-.61,.69-.95l.08-.13,.12,.08c.32,.21,.52,.41,.74,.76,.2,.32,.34,.69,.44,1.14,.02,.11,.04,.23,.05,.35l.04,.32Zm-.78-3.08c.44,.34,.64,.71,.9,1.2,.23,.43,.5,.99,.57,1.63l.81-.04c-.31-.63-.59-1.21-.87-1.8-.28-.58-.56-1.16-.86-1.78l-.17,.23c-.14,.18-.26,.37-.39,.56Zm1.2,3.13v-.14c-.05-.63-.32-1.21-.56-1.65-.28-.51-.46-.85-.92-1.18l-.11-.08,.07-.12c.17-.27,.31-.48,.47-.69,.09-.13,.19-.26,.3-.43l.14-.21,.11,.22c.35,.71,.66,1.36,.97,2.01,.31,.63,.61,1.26,.94,1.95l.03,.07-.11,.19s-1.34,.06-1.34,.06Zm5.91-3.32c-.74,1.04-.89,2.72,.16,3.81,.38,.39,1.16,.64,1.99,.64,.89,0,1.69-.28,2.18-.77,1.02-1.03,1.04-2.7,.04-4.05-.42-.58-.95-.9-1.58-.98-.69-.09-1.48,.16-2.12,.66l.11,.26c.15,.36,.27,.67,.56,.92,.12,.11,.33,.21,.52,.3,.1,.05,.2,.1,.29,.15,.18-.05,.38-.04,.56,.02,.17,.06,.3,.21,.32,.39,.02,.2-.03,.4-.14,.57-.12,.2-.3,.33-.47,.35-.37,.05-.71-.2-.76-.57,0,0,0,0,0,0,0-.02,0-.05,0-.07-.33-.2-.65-.44-.93-.71-.28-.28-.52-.59-.71-.92Zm2.18,4.75h-.03c-.91,0-1.77-.29-2.2-.73-1.23-1.26-.98-3.25-.05-4.38l.14-.16,.1,.19c.23,.42,.47,.76,.77,1.04,.25,.24,.55,.47,.95,.71l.08,.05v.09c-.03,.21,.12,.4,.33,.42,.03,0,.06,0,.09,0,.19-.03,.4-.36,.37-.59,0-.05-.03-.12-.13-.16-.14-.04-.29-.04-.42,0l-.07,.03-.06-.04c-.09-.06-.21-.11-.32-.17-.21-.1-.43-.21-.58-.35-.34-.3-.48-.65-.64-1.03-.05-.12-.1-.23-.15-.35l-.05-.11,.09-.07c.72-.6,1.62-.89,2.43-.79,.7,.08,1.32,.47,1.78,1.1,1.09,1.48,1.06,3.3-.07,4.44-.54,.54-1.4,.85-2.36,.85Zm-11.74-4.3c-.47,0-.91,.05-1.39,.29-.96,.48-1.36,1.09-1.38,2.12-.03,1.18,.69,2.74,1.9,3.22,1.14,.44,2.44,.15,3.18-.71,.28-.32,.47-.76,.58-1.3l-.12-.16-1.43-.07-.99,.12s-.1,.03-.15,.04c-.38,.06-.9-.33-.96-.69-.05-.37,.35-.59,.76-.66l1.26-2.03c-.24-.1-.49-.15-.75-.16-.17,0-.34-.01-.5-.01Zm.22,6.13c-.4,0-.81-.07-1.2-.23-1.33-.52-2.12-2.22-2.08-3.5,.03-1.14,.49-1.85,1.55-2.38,.71-.35,1.34-.33,2.02-.31,.29,0,.7,.09,1.03,.26l.13,.07-.07,.13s-1.38,2.22-1.39,2.25l-.04,.07h-.08s-.03,0-.04,0c-.23,.03-.54,.16-.52,.32,.03,.2,.41,.48,.63,.44,.03,0,.06-.01,.09-.03h.04s1.03-.13,1.03-.13l1.58,.07,.29,.37v.07c-.12,.62-.35,1.13-.67,1.51-.56,.65-1.41,1.01-2.3,1.01Zm5.78-11.67s-.1,.04-.11,.05c-.06,.05-.07,.1-.06,.12,0,.02,.09,.08,.38,.04,.15-.02,.27-.05,.39-.08-.19,.03-.39,0-.55-.11-.01,0-.03-.01-.05-.01Zm-5.78,4.89c-.75,0-1.55,.19-2.15,.56-.74,.45-1.62,1.2-1.56,2.19,.13,2.43,.87,3.67,2.48,4.14,1.1,.32,2.38,.11,3.34-.55,.76-.51,1.22-1.23,1.31-2.02v-.06s.42-.39,.42-.39h.18c.2,.01,.41,.02,.61,.03h.08s.04,.08,.04,.08c.07,.13,.19,.23,.33,.28l.11,.04v.12c-.03,.31-.07,.9-.07,.9v.09s0,0,0,0h.04s.01-.16,.01-.16l.05-.49,.05-.46,.1-.02c.23-.05,.62-.18,.58-.49-.04-.1-.09-.2-.15-.3l-.08-.14,2.29-3.55c.1-.15,.18-.32,.27-.5,.09-.18,.18-.36,.29-.53,.04-.07,.11-.08,.15-.07l.09-.13,.16,.3c.06,.1,.11,.2,.16,.31,.09,.14,.16,.25,.07,.35-.41,.46-.77,1.07-.92,1.55-.48,1.58,.19,3.11,1.75,3.97,.44,.24,.94,.39,1.43,.41,.9,.04,1.71-.21,2.39-.75,.81-.65,1.26-1.5,1.36-2.55,.01-.13,0-.26,0-.4,0-.07,0-.13,0-.2v-.1l-.06-.35c-.02-.09-.04-.17-.07-.26-.17-.59-.49-1.13-.93-1.56-.64-.63-1.41-.97-2.29-1.02-.87-.05-1.57,.36-2.15,.76-.08,.06-.16,.01-.2-.03l-.04,.03-.51-.95-1-1.89s-.04-.09-.06-.14c-.1-.24-.35-.85-.51-1.08-.16,.03-.33,.09-.49,.15-.07,.02-.13,.05-.2,.07,.05,0,.11-.02,.17-.03,.13-.02,.18,.11,.24,.23,.01,.03,.02,.06,.03,.07,.19,.2,1.07,1.42,1.25,2.33l.07,.17-.25,.05c-2.86,.53-4.31,.69-4.93,.73l-.07,.13-.14-.18c-.32-.42-.34-.48-.35-.5-.02-.06-.03-.12-.03-.18,0-.03,0-.06,0-.09l-.06-.14,.14-.05c.14-.06,.28-.14,.42-.22,.08-.05,.16-.09,.24-.13l.16-.08c.1-.05,.2-.1,.29-.16-.27,0-.54,.02-.8,.06-.78,.18-1.63,.23-2.04,.26-.11,0-.18,0-.2,.01-.09,.02-.17,.1-.18,.14,.17,.2,.38,.29,.74,.29,.04,0,.15,0,.29,0q.67,0,.72,.1c.08,.15,.22,.67,.25,.78l.02,.06-1.04,1.58-.12-.06c-.42-.23-.96-.34-1.53-.34Zm-.18,7.32c-.38,0-.76-.05-1.13-.16-2.21-.64-2.6-2.69-2.69-4.4-.05-.9,.54-1.75,1.7-2.46,1.1-.67,2.79-.79,3.85-.29l.82-1.25c-.05-.2-.11-.39-.18-.58-.17,0-.34,0-.51,0-.1,0-.2,0-.3,0-.33,0-.67-.06-.95-.4-.07-.08-.09-.19-.05-.28,.07-.17,.22-.3,.4-.33,.03,0,.11,0,.24-.02,.4-.02,1.23-.08,2-.25,0,0,1.1-.19,1.21,.06,.06,.14,0,.28-.14,.39-.12,.08-.24,.15-.36,.2l-.15,.08c-.08,.04-.15,.08-.23,.13-.11,.06-.22,.13-.34,.18v.03s0,.08,.02,.1c.01,.03,.14,.2,.26,.36,.61-.04,2.03-.19,4.83-.72-.22-.87-1.04-1.96-1.14-2.06-.04-.03-.06-.08-.1-.17l-.02-.04c-.11,.02-.23,.05-.34,.08-.14,.04-.28,.08-.47,.1-.45,.06-.62-.08-.68-.22-.06-.15,0-.33,.14-.46,.15-.13,.35-.16,.5-.06,.23,.15,.51,.05,.83-.07,.18-.07,.38-.14,.58-.17,.09-.01,.18,.02,.23,.09,.15,.21,.37,.71,.56,1.18,.02,.06,.04,.1,.05,.12l1.4,2.66s.01,0,.01,.01c.6-.41,1.32-.79,2.24-.74,.94,.05,1.78,.42,2.47,1.1,.48,.47,.82,1.05,1,1.69,.03,.09,.05,.18,.07,.27l.07,.4v.13c0,.06,0,.13,0,.19,0,.14,0,.29,0,.43-.1,1.13-.6,2.06-1.47,2.75-.74,.59-1.6,.87-2.58,.81-.55-.03-1.08-.18-1.56-.45-1.66-.92-2.4-2.61-1.89-4.32,.15-.49,.51-1.11,.92-1.59l-.03-.04-.03-.04c-.04-.09-.09-.17-.13-.26-.07,.12-.13,.25-.2,.39-.09,.18-.18,.36-.29,.53l-2.19,3.4c.11,.19,.17,.31,.18,.39,.05,.38-.2,.66-.7,.8l-.03,.25-.03,.3,.15-.02h.03c.11,.06,.18,.17,.18,.29,0,.12-.07,.23-.19,.27-.16,.02-.33,.04-.49,.07-.17,.03-.34,.05-.47,.07h-.04s-.04-.02-.04-.02c-.09-.05-.15-.14-.16-.24,0-.11,.04-.21,.13-.28l.03-.02,.23-.03,.04-.67c-.14-.07-.26-.17-.35-.3-.18,0-.35-.01-.53-.02h-.06s-.25,.23-.25,.23c-.11,.86-.62,1.63-1.43,2.18-.72,.49-1.58,.74-2.45,.74h0ZM9.22,15.9c-.07,.14-.22,.37-.47,.45-.24-.02-.45-.18-.52-.42,.17-.14,.38-.22,.61-.22,.13,0,.27,.05,.41,.12,0,.02-.02,.04-.03,.07m-.8-1.61c-.26,.11-.55-.19-.7-.4,.07-.09,.16-.12,.29-.12,.2,0,.44,.11,.66,.27-.1,.14-.19,.23-.24,.26m-1.42-1.73c.6-.24,1.49,.08,1.89,.69,.04,.06,.04,.16,.02,.28-.28-.18-.59-.31-.88-.31-.4-.02-.69,.19-.86,.55-.03,.07-.03,.16,0,.23,.22,.48,.84,1.06,1.47,.8,.15-.06,.31-.21,.45-.4,.1,.12,.18,.24,.23,.35,.06,.16,.09,.35,.08,.54-.16-.07-.34-.11-.51-.12-.41-.02-.78,.14-1.12,.47-.06,.06-.09,.15-.08,.23,.05,.58,.53,1.02,1.1,1.04,.02,0,.05,0,.07,0,.35-.08,.65-.34,.85-.72,.06,.05,.11,.11,.16,.17,.19,.23,.24,.62,.11,.94-.05,.12-.19,.4-.49,.43-.15,.02-.26,.15-.24,.3,0,0,0,0,0,0,.01,.14,.13,.25,.27,.25h.03c.41-.05,.76-.33,.94-.77,.2-.51,.12-1.12-.19-1.5-.12-.14-.24-.27-.38-.39,.07-.37,.04-.75-.09-1.07-.08-.21-.25-.43-.45-.64,.02-.04,.03-.08,.04-.12,.1-.32,.08-.61-.06-.83-.54-.82-1.7-1.23-2.54-.9-.14,.06-.21,.22-.15,.36,.05,.14,.2,.21,.34,.16,0,0,0,0,0,0m10.25,17.56c-.1-1-.31-2.81-.35-3.28-.54,0-1.1,.18-1.63,.17,0,.63,.18,2.6,.19,3.38-.5,.1-.99,.22-1.44,.38,0-1.16-.17-2.49-.31-3.68-.03-.24-.06-.46-.08-.68,.74-.13,1.52-.27,2.3-.4,.67-.12,1.33-.23,1.97-.35l.05,2.13c.01,.6,.23,1.56,.43,2.23-.37,.02-.75,.05-1.13,.09m-3.92-4.42c.41-.98,.99-2.15,1.64-2.96,.27-.34,.54-.79,.76-1.17,.17,.31,.38,.66,.57,.93,.33,.49,.77,.97,1.2,1.43,.22,.24,.44,.49,.66,.73-.77,.14-1.56,.43-2.36,.57-.78,.14-1.71,.33-2.45,.46m-.31,5.49c-1.5-.04-3.26-.37-4.85-.67-.62-.12-1.1-.04-1.66-.09-.31-.03-.68-.09-.88-.06-.09,.02-.17,.03-.26,.04,.07-.57,.13-1.22,.19-1.86,.07-.75,.13-1.52,.22-2.12,2.2-.02,4.41,.1,6.59,.36h.06c.11,0,.28,.03,.36-.04,.02,.18,.16,.77,.18,.96,.16,1.24,.08,2.34,.06,3.48m-6.51-7.77c.17-.23,1.4-1.66,1.52-2.13,.67,0,1.15,.06,1.8,.07,1.69,.02,2.77,.33,4.49,.17-.19,.32-.5,1.07-.69,1.45-.64,1.27-.81,1.6-1.33,2.87-2.31-.28-4.62-.45-6.97-.39,.43-.8,.61-1.26,1.18-2.02m3.53-3.96c0,.07,.09,.46,.09,.53,0,.14,.03,.25,.04,.4-.05,0-.28,.02-.33,.02h-.51c.01-.2-.2-.72-.22-.92,.21,0,.73-.02,.93-.03m9.49,5.94c.06-.15-.08-.54-.16-.67-.33-.5-.77-.97-1.2-1.43-.4-.43-.81-.89-1.11-1.32-.38-.56-.92-1.58-.92-1.59-.08-.16-.07-.17-.25-.18-.1,0-.35-.04-.43,.02-.01,0-3.05,.21-4.54,.2-.02-.15-.02-.3-.03-.45,0-.26-.08-.68-.14-.97-.05-.24-.2-.24-.44-.21-.41,.05-1.18,.1-1.52,.07-.16-.01-.45,0-.49,.08-.07,.14-.03,.38,.01,.53,.09,.29,.11,.61,.09,.92-.29,0-.58,0-.88,0-.22,0-.4,.16-.45,.37-.08,.36-.33,.69-.59,1.05,0,0-.4,.54-.57,.76-.77,1.02-1.56,2.08-2.03,3.24-.06,.15-.15,.33-.06,.46,.09,.13,.13,.14,.29,.14,.17,0,.56,.04,.73,.03-.09,.67-.16,1.34-.21,2.02-.07,.79-.14,1.6-.24,2.21-.03,.2,.24,.49,.24,.49,0,0,.48,.15,.8,.1,.17-.03,.69-.03,.87,0,.55,.06,1.15,.13,1.77,.2,1.74,.2,5.48,.59,5.54,.57,1.69-.54,3.88-1.47,5.66-1.41,.15,0,.03-.37,.01-.59-.06-.75-.39-1.5-.41-2.25l-.31-2.3c.08-.02,.91,.07,.98-.08"/>
	<path fill="#fefefe" d="M10.34,27.31c0,.67-.09,1.43-.1,2.1,.61-.19,1.27-.18,1.88,.02-.08-.92-.02-1.5-.06-2-.54,0-1.18-.12-1.72-.12m-3.63,1.84c.6-.18,1.25-.18,1.85,0,0-.67,0-1.34,.01-2.01h-1.85s-.01,2.01-.01,2.01m53.17,15.65c-.38,1.85-3.69,3.17-5.51,2.78-1.82-.38-2.03-1.46-1.65-3.31,.06-.28,.16-.55,.3-.79,.14,.36,.38,.68,.77,.83,.4,.16,3.72-1.04,3.34-1.83-.12-.24-.22-.5-.34-.75,.11,.01,.22,.03,.32,.05,1.82,.38,3.16,1.17,2.78,3.03m-2.5-4.42c-.33-.03-.65-.03-.98-.01,1.17-.28,2.21-1.12,2.68-2.24,.21-.49,.29-1.11-.06-1.51-.34-.39-.97-.38-1.43-.13-.45,.25-.78,.67-1.13,1.06-.53,.59-1.14,1.11-1.8,1.55-.41-.92-.4-2.11-.18-3.11,.16-.73,.53-1.48,.29-2.18-.11-.33-.35-.6-.62-.83-1.03-.88-3-.94-4.27-.5-1.27,.44-2.28,1.59-2.57,2.92-.13,.62-.11,1.31,.25,1.84,.64,.95,1.98,.97,3.09,1.21,.89,.19,1.85,.94,1.92,1.74-1.05,.4-2.17,.61-3.3,.63-.81,0-1.87,.08-2.08,.88,1.6,1.03,3.26,1.42,4.88,.75-.36,.45-.61,.98-.73,1.55-.53,2.62,.61,4.92,3.19,5.46,2.58,.54,6.19-1.73,6.72-4.35,.53-2.62-1.25-4.45-3.87-4.71m22.06-18.15c-.15-.15-.38-.21-.58-.14-.39,.14-1.68,.2-2.29,.2-1.94,0-3.22-.05-5.25-.31-.16-.02-.33,.03-.45,.14-.12,.11-.19,.27-.19,.44,.02,2.99-.48,5.67-1.46,7.83-.56-.67-1.61-1.11-2.42-.95-.14,.02-.27,.07-.38,.15-.3,.22-.37,.71-.24,1.06,.13,.35,.42,.59,.71,.77,.68,.41,1.86,.89,2.42,.67,.2,0,.39-.11,.49-.29,1.09-1.99,2.14-4.1,2.45-6.77,1.23,.08,1.88-.3,3.43-.25,.27,.01,1.43-.22,2.14,.04-.26,1.03-.51,2.07-.74,3.11-.15,.69-.32,1.41-.5,2.15-.18-.15-.36-.29-.56-.41-.69-.43-1.73-.62-2.17,.09-.15,.24-.19,.54-.11,.82,.15,.48,.63,.75,1.07,.95,.48,.23,1,.45,1.53,.37,.27-.04,.54-.18,.72-.38,.22-.04,.4-.2,.45-.42,.26-1.03,.47-1.98,.68-2.91,.39-1.76,.77-3.41,1.39-5.37,.07-.21,.01-.43-.14-.59"/>
	<path fill="#fefefe" d="M34.94,34.63c-.23-.32-.88-.06-1.78,.29-.26,.1-.52,.2-.77,.28,1.03-1.11,2.52-3.41,2.17-4l-.06-.09-.1,.02c-1.47,.27-2.88,1.83-3.26,3.43-.32-1.44-.55-2.29-1-2.24l-.07,.03c-.91,.66-.67,2.03-.45,2.79l.03,.1c.21,.71,.44,1.49,.25,2.14-.32-1.06-1.12-2.35-1.73-2.71-.19-.11-.36-.15-.51-.09l-.05,.03c-.59,.46-.26,1.33,.08,2.26,.34,.9,.72,1.92,.35,2.72-.64-1.6-1.93-4.66-2.58-4.67-.08,0-.16,.05-.21,.11-.36,.52,.52,3.84,1.17,5.89-.94-1.37-2.28-3.2-2.73-3.2h-.01c-.09,0-.21,.05-.31,.22-.31,.57-.06,2.24,.36,3.03,.07,.13,.14,.26,.21,.39,.36,.67,.73,1.35,.78,2.06-1.07-1.51-2.66-3.63-3.14-3.48-.11,.04-.2,.12-.24,.23-.27,.62,.41,2.44,.9,3.45,.08,.17,.16,.33,.23,.48,.25,.53,.44,.94,.82,1.44-.52-.28-1.69-1.42-2.43-2.15-1.2-1.18-1.72-1.66-1.98-1.67-.14-.01-.27,.06-.34,.18-.3,.48,.11,1.82,.49,2.57,.63,1.25,2.23,2.9,3.42,3.24-.79,1.33-3.81,2.45-3.84,2.46l-.26,.09,1.97,1.55,.09-.08c.12-.09,2.72-2.26,3.37-3.13,1.03,.32,1.39,.64,1.77,.98,.27,.24,.55,.49,1.07,.73,1.2,.56,2.91,.53,3.62,.15,.21-.12,.33-.26,.36-.42,.06-.39-.65-.72-2.13-1.36-1.15-.5-2.73-1.18-2.81-1.66,0-.05,0-.1,.03-.14h.02c5.46,1.7,5.85,1.29,5.98,1.15l.03-.05c.06-.14,.05-.29,0-.43-.21-.49-1.07-.83-2-1.17-.17-.06-.32-.11-.42-.16q-1.09-.46-1.82-1.11l-.23-.21c-.18-.16-.26-.27-.26-.34,0-.04,.05-.1,.12-.15,1.04,.32,1.66,.38,2.38,.46,.43,.05,.92,.1,1.56,.21,.35,.06,1.19-.11,1.59-.46,.19-.17,.23-.35,.23-.46-.03-.57-1.2-.81-3.11-1.17-.59-.1-1.18-.22-1.77-.37,1.04-.38,2.07-.28,2.99-.19,1.14,.11,2.21,.22,2.96-.67l.04-.04v-.05c0-.65-1.79-.9-4.76-1.22,.51-.53,1.5-.63,2.46-.73,1.01-.1,2.05-.21,2.58-.84,.15-.21,.13-.38,.08-.48-.21-.46-1.31-.56-2.84-.65-.2-.01-.39-.02-.59-.04,.31-.63,1.26-1.11,2.12-1.32,1.28-.31,1.94-.87,1.95-1.66v-.05s-.03-.04-.03-.04Z"/>
	<path fill="#fefefe" d="M49.61,61.55c-1.17,1.18-3.58,.94-4.37,.12-1.15-1.18-.94-3.09-.04-4.18,.22,.4,.47,.77,.79,1.08,.29,.29,.63,.52,.97,.73-.03,.29,.17,.55,.46,.58,.05,0,.09,0,.14,0,.29-.04,.54-.47,.49-.76-.04-.29-.36-.34-.64-.3-.04,0-.08,.02-.11,.03-.25-.16-.66-.31-.89-.5-.41-.36-.52-.85-.75-1.34,1.1-.91,2.87-1.25,4,.28,.97,1.32,1.1,3.08-.06,4.24m-7.87-1.37s-.25,.22-.27,.24c-.03-.1-.06-.2-.09-.3l.03-.49,.26-.04c.09-.05,.06-.22-.03-.24,0,0-.61,.08-.83,.12-.08,.04-.07,.21,.02,.25l.24-.03-.06,.47s-.23,.33-.24,.33c-.65-1.32-.88-2.51-1.53-3.82,1.43-.03,2.76-.64,4.92-.71-.02,.06-1.46,2.73-2.42,4.22m-1.21,.71l-1.12,.05c-.04-.61-.28-1.17-.56-1.71-.29-.53-.48-.89-.97-1.23,.26-.43,.47-.68,.77-1.12,.68,1.4,1.23,2.56,1.91,3.95l-.03,.05m-4.55-.18c.43-.78,1.04-1.37,1.51-2.12,.32,.21,.5,.4,.7,.72,.21,.33,.33,.7,.42,1.09,.03,.16,.04,.32,.07,.49-.83-.02-1.83-.16-2.69-.18m2.04,2.52c-.8,.94-2.2,1.19-3.34,.75-1.2-.47-2.02-2.05-1.99-3.36,.03-1.12,.48-1.76,1.47-2.25,.68-.34,1.29-.32,1.96-.29,.29,.01,.66,.09,.96,.25-.01,.03-1.28,2.07-1.38,2.24-.02,0-.04,0-.06,0-.29,.04-.68,.2-.64,.49,.04,.29,.51,.61,.79,.57,.04,0,.09-.02,.13-.04l1.03-.12,1.49,.07,.21,.26c-.1,.53-.28,1.04-.62,1.44m13.17-4.13v-.1c-.01-.09-.03-.17-.04-.26-.03-.13-.06-.26-.1-.39-.17-.62-.51-1.18-.97-1.62-.67-.65-1.46-1.01-2.38-1.06-.84-.04-1.54,.3-2.24,.78-.01,0-.09-.1-.11-.09l-.09-.17-1.34-2.53s-.39-.99-.6-1.27c-.02-.03-.06-.04-.09-.03-.54,.08-1.06,.51-1.5,.22-.33-.22-.85,.59,.1,.47,.36-.05,.53-.15,.9-.2,.04,0,.11,.23,.14,.25,.07,.05,1.03,1.31,1.22,2.26,0,.01,.01,.03,.02,.04-.03,0-.06,0-.08,.01-3.75,.7-5,.73-4.99,.74,0,0-.31-.4-.33-.46-.02-.05-.02-.23-.04-.27,.23-.1,.45-.24,.66-.35,.17-.09,.34-.16,.5-.27,.07-.05,.13-.12,.09-.21s-.96,0-1.04,.02c-1,.23-2.12,.25-2.24,.27-.18,.03-.38,.24-.26,.38,.22,.27,.49,.34,.85,.35,.1,0,.87,0,.89,.03,.08,.14,.24,.74,.24,.74l-.93,1.41c-1.03-.56-2.74-.43-3.82,.23-.86,.53-1.69,1.31-1.63,2.33,.11,2.05,.66,3.71,2.59,4.27,2.1,.61,4.6-.67,4.83-2.7l.33-.31c.24,0,.49,.02,.73,.03,.09,.17,.24,.29,.42,.35l-.06,.9s-.22,.03-.31,.04c-.11,.08-.09,.22,.01,.27,.27-.03,.67-.11,.94-.13,.1-.03,.13-.22,0-.27l-.29,.04s.03-.32,.05-.49l.04-.35c.37-.08,.74-.27,.69-.66-.01-.09-.17-.34-.21-.42l2.24-3.47c.21-.32,.35-.71,.56-1.03,.01-.02,.09,.02,.11,0l.21,.4s.1,.16,.09,.18c-.38,.43-.79,1.06-.95,1.61-.51,1.69,.25,3.27,1.82,4.14,.46,.26,.97,.4,1.49,.43,.93,.05,1.76-.21,2.48-.78,.84-.68,1.32-1.56,1.42-2.65,.02-.2,0-.41,0-.61"/>
</svg>
