<svg xmlns="http://www.w3.org/2000/svg" viewBox="0 0 221.29 206.66" width="200" height="186.766" fill="#333333">
	<path d="M.42,206.28c-.91-.48,18.11-38.75,42.5-85.48s44.9-84.23,45.82-83.75S70.63,75.8,46.24,122.53,1.34,206.76.42,206.28Z"/>
	<path d="M64.21,137.72c-.1-.25,4-2.14,11.55-5.46,3.74-1.68,8.33-3.7,13.59-6.19s11.21-5.39,17.6-8.92a173,173,0,0,0,20-12.84,115.29,115.29,0,0,0,19.7-18.61,67.82,67.82,0,0,0,14-25.92A49.21,49.21,0,0,0,162,52.22a39.27,39.27,0,0,0-.08-7.74,36.54,36.54,0,0,0-5-14.88,45.79,45.79,0,0,0-10.32-12,53.57,53.57,0,0,0-13.31-8,78.45,78.45,0,0,0-29-5.75A94.68,94.68,0,0,0,77.52,7.39a97.22,97.22,0,0,0-21.81,9.05l-1.19.64-1.13.7-2.23,1.39L49,20.51,47,22c-1.32,1-2.65,1.84-3.85,2.81l-3.46,2.84c-1.14.88-2.12,1.88-3.1,2.79l-2.83,2.65-4.61,5c-1.29,1.57-2.43,3-3.43,4.19a21,21,0,0,0-1.32,1.73L23.32,45.4C22,47.13,21.31,48,21.19,48s.41-1.09,1.5-3l.92-1.57a15.43,15.43,0,0,1,1.19-1.85L28,37.09c1.3-1.6,2.81-3.35,4.44-5.27L35.22,29c1-1,1.93-2,3.07-3l3.44-3c1.19-1,2.52-2,3.84-3l2-1.54,2.19-1.44L52,15.58l1.14-.76,1.2-.68A97.66,97.66,0,0,1,76.66,4.4a95.77,95.77,0,0,1,27.65-4c2.48.06,5,.2,7.51.35s5.07.56,7.63,1a73.86,73.86,0,0,1,15.28,4.44A57.08,57.08,0,0,1,149,14.69a49.33,49.33,0,0,1,11.19,13,40.15,40.15,0,0,1,5.43,16.37,42.84,42.84,0,0,1,.06,8.47,51.23,51.23,0,0,1-1.47,8.16,70.67,70.67,0,0,1-14.85,27.2,116,116,0,0,1-20.51,18.9,165.46,165.46,0,0,1-20.62,12.67c-6.55,3.43-12.61,6.22-18,8.51s-10.06,4.14-13.9,5.62-6.84,2.55-8.9,3.23S64.26,137.84,64.21,137.72Z"/>
	<path d="M220.93,187.46c0,.26-2.59.68-7.34,1.2s-11.67.92-20.23.93-18.72-.48-29.92-.82c-5.61-.15-11.48-.18-17.57-.07s-12.4.4-18.85.91a186.2,186.2,0,0,0-18.65,1.87,43.06,43.06,0,0,0-8.33,2.3c-.64.26-1.29.51-1.9.83a19.44,19.44,0,0,0-1.81.95,17.39,17.39,0,0,0-1.7,1.07l-.81.56a1.87,1.87,0,0,0-.23.17l-.35.29-.7.59-1.39,1.16-.35.29c-.11,0-.21-.2-.31-.28l-.62-.69-2.11-2.32-2.71-3-2.63-2.94a6.26,6.26,0,0,0-1.1-1.07,2.66,2.66,0,0,0-1.11-.42,15,15,0,0,0-3.32.06l-3.55.26-6.68.45a65.23,65.23,0,0,1-11.68-.1,68.72,68.72,0,0,1-8.6-1.81c-4.61-1.24-7.12-2.07-7.06-2.32s2.68.09,7.37.89c2.35.38,5.2.92,8.49,1.15a69.22,69.22,0,0,0,11.27-.46l6.64-.68,3.53-.37a17.29,17.29,0,0,1,4-.15,5.87,5.87,0,0,1,2.42.87,9.47,9.47,0,0,1,1.71,1.54l2.69,2.87,2.78,3c.62.67.53.56.69.72l.09.09s0,0,0,0l.06-.05.21-.2.11-.1.05,0,.21-.15.92-.67a19.08,19.08,0,0,1,1.92-1.24,18.74,18.74,0,0,1,2-1.1c.68-.37,1.4-.66,2.11-1a45.9,45.9,0,0,1,9-2.6,176.4,176.4,0,0,1,19.06-2c6.5-.51,12.88-.72,19-.85s12.11,0,17.76.29c11.29.54,21.37,1.35,29.85,1.63C210.36,187.54,220.89,186.85,220.93,187.46Z"/>
</svg>
